<svg width="24" height="22" viewBox="0 0 24 22" fill="none" xmlns="http://www.w3.org/2000/svg">
<path d="M21.702 1.00147C21.4583 1.01216 21.2211 1.07996 21.0072 1.16558C20.7955 1.25064 19.5765 1.7707 17.7765 2.54001C15.9764 3.30931 13.6365 4.31111 11.317 5.30449C6.67794 7.29125 2.11929 9.24607 2.11929 9.24607L2.15251 9.23337C2.15251 9.23337 1.87738 9.3253 1.59842 9.51959C1.45895 9.61673 1.3089 9.74214 1.18603 9.92498C1.06317 10.1078 0.973351 10.3669 1.0072 10.641C1.12609 11.6037 2.12417 11.8767 2.12417 11.8767L2.12808 11.8787L6.5823 13.4026C6.69587 13.7813 7.93328 17.9097 8.20548 18.784C8.35581 19.2674 8.49651 19.5462 8.64328 19.7364C8.71672 19.8316 8.79369 19.9053 8.87879 19.9592C8.91261 19.9806 8.94817 19.9966 8.98336 20.0109H8.98531C8.98963 20.0128 8.9937 20.013 8.99801 20.0148L8.98629 20.0119C8.99446 20.0152 9.00253 20.0208 9.01072 20.0236C9.0266 20.0292 9.03633 20.029 9.05665 20.0334C9.56677 20.2115 9.98893 19.881 9.98893 19.881L10.0065 19.8673L12.7428 17.3305L17.1833 20.7914L17.239 20.8168C18.0163 21.1618 18.7192 20.9694 19.1084 20.6527C19.4977 20.3361 19.6508 19.9279 19.6508 19.9279L19.6674 19.8849L22.9304 2.88484C23.0139 2.50451 23.0257 2.17575 22.947 1.87868C22.8683 1.58161 22.6769 1.32337 22.4369 1.18023C22.1968 1.0371 21.9457 0.990784 21.702 1.00147ZM21.7284 2.01837C21.8274 2.01379 21.9007 2.0251 21.9238 2.03888C21.947 2.05267 21.9573 2.05086 21.9795 2.13462C22.0017 2.21838 22.0138 2.3948 21.9532 2.67091L21.9512 2.67677L18.7068 19.5782C18.6991 19.5952 18.6315 19.7516 18.4771 19.8771C18.3197 20.0052 18.1445 20.1052 17.6797 19.9103L12.8239 16.125L12.6871 16.0176L12.6841 16.0205L11.232 14.9313L19.3928 5.33379C19.4555 5.26024 19.4956 5.1701 19.5081 5.07427C19.5207 4.97845 19.5052 4.88104 19.4635 4.79383C19.4219 4.70662 19.3558 4.63334 19.2734 4.58286C19.1909 4.53237 19.0956 4.50683 18.999 4.50933C18.9046 4.51179 18.8127 4.54091 18.7342 4.59334L6.92531 12.4628L2.46425 10.936C2.46425 10.936 2.02127 10.6896 2.00007 10.5179C1.99889 10.5084 1.99366 10.517 2.01668 10.4828C2.0397 10.4485 2.09756 10.3907 2.1701 10.3401C2.31519 10.2391 2.48086 10.178 2.48086 10.178L2.49748 10.1721L2.51409 10.1653C2.51409 10.1653 7.07298 8.21036 11.7118 6.2237C14.0312 5.23038 16.3707 4.22931 18.1703 3.4602C19.9694 2.69128 21.2694 2.13782 21.3795 2.09359C21.5048 2.04342 21.6294 2.02295 21.7284 2.01837ZM16.3165 7.40667L10.1277 14.6852L10.1248 14.6881C10.1151 14.6997 10.106 14.7118 10.0974 14.7242C10.0876 14.7378 10.0784 14.7518 10.07 14.7662C10.0353 14.8252 10.013 14.8907 10.0046 14.9587C10.0046 14.96 10.0046 14.9613 10.0046 14.9626L9.19835 18.5867C9.18494 18.5475 9.17556 18.5332 9.16121 18.4871V18.4861C8.90514 17.6636 7.73767 13.7701 7.57614 13.2316L16.3165 7.40667ZM10.8264 15.8779L11.9385 16.7121L10.3046 18.2262L10.8264 15.8779Z" fill="#08050D" stroke="#08050D" stroke-width="0.5"/>
</svg>
