<svg width="103" height="14" viewBox="0 0 103 14" fill="none" xmlns="http://www.w3.org/2000/svg">
<path d="M94.7473 3.46826H96.9675V4.33168H97.5079C97.7027 4.02924 97.9753 3.78534 98.3259 3.59997C98.6862 3.4146 99.1146 3.32192 99.6112 3.32192C100.137 3.32192 100.609 3.42436 101.028 3.62924C101.447 3.82436 101.802 4.09753 102.094 4.44875C102.386 4.79997 102.61 5.21461 102.766 5.69265C102.922 6.1707 103 6.6829 103 7.22924C103 7.82436 102.917 8.36583 102.752 8.85363C102.586 9.34144 102.352 9.75607 102.051 10.0975C101.749 10.4292 101.388 10.6878 100.97 10.8731C100.561 11.0585 100.113 11.1512 99.6258 11.1512C99.1195 11.1512 98.6862 11.0585 98.3259 10.8731C97.9753 10.6878 97.7075 10.439 97.5225 10.1268H96.9675V13.2H94.7473V3.46826ZM98.8809 5.35607C98.5888 5.35607 98.3259 5.40485 98.0922 5.50241C97.8585 5.59997 97.654 5.73168 97.4787 5.89753C97.3132 6.06339 97.1866 6.26339 97.0989 6.49753C97.0113 6.72192 96.9675 6.96583 96.9675 7.22924C96.9675 7.49266 97.0113 7.74144 97.0989 7.97558C97.1866 8.20973 97.3132 8.40973 97.4787 8.57558C97.654 8.74144 97.8585 8.87314 98.0922 8.9707C98.3259 9.06827 98.5888 9.11705 98.8809 9.11705C99.173 9.11705 99.436 9.06827 99.6697 8.9707C99.9034 8.87314 100.103 8.74144 100.269 8.57558C100.434 8.40973 100.561 8.20973 100.648 7.97558C100.746 7.74144 100.794 7.49266 100.794 7.22924C100.794 6.96583 100.746 6.72192 100.648 6.49753C100.561 6.26339 100.434 6.06339 100.269 5.89753C100.103 5.73168 99.9034 5.59997 99.6697 5.50241C99.436 5.40485 99.173 5.35607 98.8809 5.35607Z" fill="#08050D"/>
<path d="M85.8322 3.46826H88.0524V4.33168H88.5928C88.7876 4.02924 89.0602 3.78534 89.4108 3.59997C89.7711 3.4146 90.1996 3.32192 90.6962 3.32192C91.222 3.32192 91.6943 3.42436 92.113 3.62924C92.5317 3.82436 92.8871 4.09753 93.1793 4.44875C93.4714 4.79997 93.6954 5.21461 93.8512 5.69265C94.007 6.1707 94.0849 6.6829 94.0849 7.22924C94.0849 7.82436 94.0021 8.36583 93.8366 8.85363C93.671 9.34144 93.4373 9.75607 93.1354 10.0975C92.8336 10.4292 92.4733 10.6878 92.0546 10.8731C91.6456 11.0585 91.1977 11.1512 90.7108 11.1512C90.2044 11.1512 89.7711 11.0585 89.4108 10.8731C89.0602 10.6878 88.7925 10.439 88.6074 10.1268H88.0524V13.2H85.8322V3.46826ZM89.9659 5.35607C89.6737 5.35607 89.4108 5.40485 89.1771 5.50241C88.9434 5.59997 88.7389 5.73168 88.5636 5.89753C88.3981 6.06339 88.2715 6.26339 88.1839 6.49753C88.0962 6.72192 88.0524 6.96583 88.0524 7.22924C88.0524 7.49266 88.0962 7.74144 88.1839 7.97558C88.2715 8.20973 88.3981 8.40973 88.5636 8.57558C88.7389 8.74144 88.9434 8.87314 89.1771 8.9707C89.4108 9.06827 89.6737 9.11705 89.9659 9.11705C90.258 9.11705 90.5209 9.06827 90.7546 8.9707C90.9883 8.87314 91.1879 8.74144 91.3535 8.57558C91.519 8.40973 91.6456 8.20973 91.7332 7.97558C91.8306 7.74144 91.8793 7.49266 91.8793 7.22924C91.8793 6.96583 91.8306 6.72192 91.7332 6.49753C91.6456 6.26339 91.519 6.06339 91.3535 5.89753C91.1879 5.73168 90.9883 5.59997 90.7546 5.50241C90.5209 5.40485 90.258 5.35607 89.9659 5.35607Z" fill="#08050D"/>
<path d="M77.9102 8.76583C77.9102 8.00485 78.1585 7.41461 78.6551 6.99509C79.1517 6.56583 79.9259 6.35119 80.9776 6.35119H82.7741V6.32192C82.7741 5.90241 82.6524 5.59997 82.409 5.41461C82.1753 5.22924 81.8588 5.13656 81.4596 5.13656C81.0603 5.13656 80.7585 5.22436 80.554 5.39997C80.3495 5.56583 80.2132 5.77558 80.145 6.02924H78.0125C78.0514 5.639 78.1488 5.27802 78.3046 4.94631C78.4604 4.61461 78.6795 4.33168 78.9619 4.09753C79.2443 3.85363 79.5948 3.66339 80.0135 3.5268C80.442 3.39021 80.9386 3.32192 81.5034 3.32192C82.6524 3.32192 83.5191 3.59509 84.1033 4.14143C84.6973 4.67802 84.9943 5.41948 84.9943 6.36583V11.0049H82.7741V10.3463H82.2337C82.0584 10.5512 81.8247 10.7366 81.5326 10.9024C81.2405 11.0683 80.8315 11.1512 80.3057 11.1512C79.9162 11.1512 79.5705 11.0927 79.2686 10.9756C78.9667 10.8488 78.7136 10.678 78.5091 10.4634C78.3143 10.2488 78.1634 9.9951 78.0563 9.70241C77.9589 9.40973 77.9102 9.09754 77.9102 8.76583ZM80.1158 8.54631C80.1158 8.79997 80.2132 8.99509 80.4079 9.13168C80.6124 9.25851 80.8997 9.32193 81.2697 9.32193C81.5423 9.32193 81.8004 9.29266 82.0438 9.23412C82.297 9.17558 82.5404 9.07314 82.7741 8.9268V7.78534H81.2551C80.8948 7.78534 80.6124 7.84875 80.4079 7.97558C80.2132 8.10241 80.1158 8.29266 80.1158 8.54631Z" fill="#08050D"/>
<path d="M66.0136 7.22924C66.0136 6.6829 66.1061 6.1707 66.2911 5.69265C66.4859 5.21461 66.7585 4.79997 67.1091 4.44875C67.4596 4.09753 67.8832 3.82436 68.3798 3.62924C68.8862 3.42436 69.4558 3.32192 70.0888 3.32192C70.7217 3.32192 71.2865 3.42436 71.7831 3.62924C72.2895 3.82436 72.7179 4.09753 73.0685 4.44875C73.4191 4.79997 73.6868 5.21461 73.8719 5.69265C74.0569 6.1707 74.1494 6.6829 74.1494 7.22924C74.1494 7.77558 74.0569 8.28778 73.8719 8.76583C73.6868 9.24388 73.4191 9.65851 73.0685 10.0097C72.7179 10.3609 72.2895 10.639 71.7831 10.8439C71.2865 11.0488 70.7217 11.1512 70.0888 11.1512C69.4558 11.1512 68.8862 11.0488 68.3798 10.8439C67.8832 10.639 67.4596 10.3609 67.1091 10.0097C66.7585 9.65851 66.4859 9.24388 66.2911 8.76583C66.1061 8.28778 66.0136 7.77558 66.0136 7.22924ZM68.2192 7.22924C68.2192 7.76583 68.3896 8.21461 68.7304 8.57558C69.0712 8.93656 69.524 9.11705 70.0888 9.11705C70.3712 9.11705 70.6244 9.06827 70.8483 8.9707C71.0723 8.87314 71.267 8.74144 71.4326 8.57558C71.5981 8.40973 71.7247 8.20973 71.8123 7.97558C71.9 7.74144 71.9438 7.49266 71.9438 7.22924C71.9438 6.96583 71.9 6.72192 71.8123 6.49753C71.7247 6.26339 71.5981 6.06339 71.4326 5.89753C71.267 5.73168 71.0723 5.59997 70.8483 5.50241C70.6244 5.40485 70.3712 5.35607 70.0888 5.35607C69.8064 5.35607 69.5483 5.40485 69.3146 5.50241C69.0907 5.59997 68.8959 5.73168 68.7304 5.89753C68.5648 6.06339 68.4383 6.26339 68.3506 6.49753C68.263 6.72192 68.2192 6.96583 68.2192 7.22924Z" fill="#08050D"/>
<path d="M60.5063 3.46826H61.6748C61.6942 3.00973 61.7624 2.6146 61.8793 2.2829C62.0059 1.94143 62.1909 1.66338 62.4343 1.44875C62.6875 1.22436 63.0088 1.05851 63.3983 0.95119C63.7976 0.843873 64.2747 0.790214 64.8298 0.790214H65.7792V2.45851H64.9028C64.5328 2.45851 64.2747 2.54143 64.1287 2.70729C63.9826 2.86339 63.8998 3.11704 63.8803 3.46826H65.7792V5.50241H63.8803V11.0049H61.6748V5.50241H60.5063V3.46826Z" fill="#08050D"/>
<path d="M52.8536 11.0049V3.46826H55.0738V4.11217H55.6142C55.809 3.87802 56.0378 3.68778 56.3007 3.54143C56.5734 3.39509 56.9532 3.32192 57.44 3.32192C58.2872 3.32192 58.9299 3.58534 59.3681 4.11217C59.8063 4.62924 60.0254 5.36095 60.0254 6.30729V11.0049H57.8198V6.79022C57.8198 6.31217 57.7127 5.95607 57.4985 5.72192C57.2842 5.47802 56.9434 5.35607 56.476 5.35607C56.1352 5.35607 55.8528 5.39997 55.6288 5.48778C55.4146 5.56582 55.2296 5.66339 55.0738 5.78046V11.0049H52.8536Z" fill="#08050D"/>
<path d="M51.95 11.0049H49.7298V3.46827H51.95V11.0049ZM49.6275 1.77071C49.6275 1.42924 49.7395 1.1512 49.9635 0.936561C50.1972 0.712171 50.4942 0.599976 50.8545 0.599976C51.2148 0.599976 51.5069 0.712171 51.7309 0.936561C51.9548 1.1512 52.0668 1.42924 52.0668 1.77071C52.0668 2.09266 51.9548 2.36583 51.7309 2.59022C51.5069 2.80485 51.2148 2.91217 50.8545 2.91217C50.4942 2.91217 50.1972 2.80485 49.9635 2.59022C49.7395 2.36583 49.6275 2.09266 49.6275 1.77071Z" fill="#08050D"/>
<path d="M45.9491 9.96583C45.9491 9.65364 46.0611 9.37559 46.285 9.13168C46.5187 8.88778 46.8206 8.76583 47.1906 8.76583C47.5704 8.76583 47.8723 8.88778 48.0962 9.13168C48.3299 9.37559 48.4468 9.65364 48.4468 9.96583C48.4468 10.278 48.3299 10.5561 48.0962 10.8C47.8723 11.0341 47.5704 11.1512 47.1906 11.1512C47.0056 11.1512 46.8352 11.1171 46.6794 11.0488C46.5333 10.9805 46.4019 10.8927 46.285 10.7853C46.1779 10.678 46.0952 10.5561 46.0367 10.4195C45.9783 10.2731 45.9491 10.1219 45.9491 9.96583Z" fill="#08050D"/>
<path d="M37.4711 7.22924C37.4711 6.6829 37.5636 6.1707 37.7486 5.69265C37.9434 5.21461 38.216 4.79997 38.5666 4.44875C38.9171 4.09753 39.3407 3.82436 39.8374 3.62924C40.3437 3.42436 40.9134 3.32192 41.5463 3.32192C42.1793 3.32192 42.744 3.42436 43.2407 3.62924C43.747 3.82436 44.1755 4.09753 44.526 4.44875C44.8766 4.79997 45.1444 5.21461 45.3294 5.69265C45.5144 6.1707 45.6069 6.6829 45.6069 7.22924C45.6069 7.77558 45.5144 8.28778 45.3294 8.76583C45.1444 9.24388 44.8766 9.65851 44.526 10.0097C44.1755 10.3609 43.747 10.639 43.2407 10.8439C42.744 11.0488 42.1793 11.1512 41.5463 11.1512C40.9134 11.1512 40.3437 11.0488 39.8374 10.8439C39.3407 10.639 38.9171 10.3609 38.5666 10.0097C38.216 9.65851 37.9434 9.24388 37.7486 8.76583C37.5636 8.28778 37.4711 7.77558 37.4711 7.22924ZM39.6767 7.22924C39.6767 7.76583 39.8471 8.21461 40.1879 8.57558C40.5287 8.93656 40.9815 9.11705 41.5463 9.11705C41.8287 9.11705 42.0819 9.06827 42.3058 8.9707C42.5298 8.87314 42.7246 8.74144 42.8901 8.57558C43.0556 8.40973 43.1822 8.20973 43.2699 7.97558C43.3575 7.74144 43.4013 7.49266 43.4013 7.22924C43.4013 6.96583 43.3575 6.72192 43.2699 6.49753C43.1822 6.26339 43.0556 6.06339 42.8901 5.89753C42.7246 5.73168 42.5298 5.59997 42.3058 5.50241C42.0819 5.40485 41.8287 5.35607 41.5463 5.35607C41.2639 5.35607 41.0059 5.40485 40.7722 5.50241C40.5482 5.59997 40.3534 5.73168 40.1879 5.89753C40.0224 6.06339 39.8958 6.26339 39.8081 6.49753C39.7205 6.72192 39.6767 6.96583 39.6767 7.22924Z" fill="#08050D"/>
<path d="M25.2811 11.0049V3.46826H27.5013V4.1268H28.0417C28.2073 3.90241 28.4215 3.71217 28.6844 3.55607C28.9473 3.39997 29.3076 3.32192 29.7653 3.32192C30.2035 3.32192 30.5784 3.39997 30.89 3.55607C31.2016 3.70241 31.4548 3.91704 31.6495 4.19997H32.2045C32.3993 3.94631 32.6476 3.73656 32.9495 3.5707C33.2611 3.40485 33.6555 3.32192 34.1326 3.32192C35.0187 3.32192 35.7004 3.57558 36.1775 4.0829C36.6546 4.58046 36.8932 5.32192 36.8932 6.30729V11.0049H34.6876V6.74631C34.6876 6.30729 34.5854 5.9707 34.3809 5.73656C34.1862 5.49265 33.8551 5.3707 33.3877 5.3707C33.1345 5.3707 32.9105 5.40973 32.7158 5.48778C32.521 5.55607 32.3409 5.64387 32.1753 5.75119C32.1851 5.82924 32.1899 5.91217 32.1899 5.99997C32.1899 6.07802 32.1899 6.15607 32.1899 6.23412V11.0049H29.9844V6.74631C29.9844 6.30729 29.887 5.9707 29.6922 5.73656C29.5072 5.49265 29.2005 5.3707 28.772 5.3707C28.4604 5.3707 28.2073 5.41461 28.0125 5.50241C27.8177 5.58046 27.6473 5.67314 27.5013 5.78046V11.0049H25.2811Z" fill="#08050D"/>
<path d="M19.1944 3.46827L20.7135 8.50242H20.9472L22.5247 3.46827H24.8763L22.4663 11.0049H19.1068L16.6967 3.46827H19.1944Z" fill="#08050D"/>
<path d="M12.8316 11.1512C12.2279 11.1512 11.6777 11.0488 11.1811 10.8439C10.6845 10.639 10.2609 10.3609 9.91035 10.0097C9.55979 9.65851 9.28714 9.24388 9.09239 8.76583C8.89763 8.28778 8.80026 7.77558 8.80026 7.22924C8.80026 6.6829 8.89763 6.1707 9.09239 5.69265C9.28714 5.21461 9.55979 4.79997 9.91035 4.44875C10.2609 4.09753 10.6845 3.82436 11.1811 3.62924C11.6777 3.42436 12.2279 3.32192 12.8316 3.32192C13.4646 3.32192 14.0245 3.42436 14.5114 3.62924C15.008 3.82436 15.4267 4.09753 15.7675 4.44875C16.1181 4.79997 16.381 5.20973 16.5563 5.67802C16.7413 6.13656 16.8338 6.62924 16.8338 7.15607C16.8338 7.27314 16.8289 7.38046 16.8192 7.47802C16.8192 7.57558 16.8143 7.66339 16.8046 7.74144H10.9328C11.001 8.24875 11.1957 8.64388 11.5171 8.9268C11.8384 9.19997 12.2766 9.33656 12.8316 9.33656C13.2504 9.33656 13.6009 9.26827 13.8833 9.13168C14.1754 8.98534 14.3848 8.77558 14.5114 8.50241H16.7316C16.6244 8.8829 16.4589 9.239 16.2349 9.57071C16.011 9.89266 15.7335 10.1707 15.4024 10.4049C15.081 10.639 14.7013 10.8244 14.2631 10.9609C13.8346 11.0878 13.3575 11.1512 12.8316 11.1512ZM14.599 6.32192C14.4822 5.98046 14.2777 5.69753 13.9855 5.47314C13.6934 5.24875 13.3088 5.13656 12.8316 5.13656C12.3642 5.13656 11.9747 5.24875 11.6631 5.47314C11.3515 5.68778 11.1373 5.9707 11.0204 6.32192H14.599Z" fill="#08050D"/>
<path d="M0.535645 11.0049V0.907291H4.33332C4.976 0.907291 5.54565 0.990218 6.04227 1.15607C6.53889 1.32193 6.95761 1.55607 7.29843 1.85851C7.63925 2.16095 7.89729 2.52193 8.07257 2.94144C8.25759 3.36095 8.35009 3.82924 8.35009 4.34632C8.35009 4.93168 8.2089 5.47315 7.92651 5.97071C7.64411 6.45851 7.22053 6.84876 6.65575 7.14144L8.84671 11.0049H6.1007L4.2895 7.84388H2.85807V11.0049H0.535645ZM4.31871 5.80973C4.90297 5.80973 5.3363 5.67315 5.61869 5.39998C5.91082 5.11705 6.05688 4.76583 6.05688 4.34632C6.05688 3.92681 5.91082 3.59022 5.61869 3.33656C5.3363 3.07315 4.90297 2.94144 4.31871 2.94144H2.79964V5.80973H4.31871Z" fill="#08050D"/>
</svg>
